:SAMPLES-PER-SECOND 30
:FULLY-SPECIFIED
:DEGREES
2439
root  8.17133 40.2406 24.2283 145.641 86.9733 148.117
RightUpLeg  -11.1297 -23.5389 -0.178427
RightLeg  18.87 -7.46346 -1.77153
RightFoot  -5.58497 0.0937788 -2.66134
RightToes  0.000481921 0.542163 -0.142578
Spine  15.4749 -0.19122 3.44035
Spine1  12.0299 0.44044 -0.636014
HEad  -13.0895 5.95688 -7.13197
LeftShoulder1  9.28327 -15.6706 -42.0301
LeftArm  2.10092 -21.7784 -22.3601
LeftForeArm  154.357 -75.1478 -141.116
LeftHand  -0.25398 0.0180481 5.50724
RightShoulder  5.61925 11.4671 31.5848
RightArm  8.29184 16.3663 25.4446
RightForeArm  103.754 70.9479 142.812
RightHand  -2.51099 6.51902 -24.5343
LeftUpLeg  -5.13455 22.8907 0.0148473
LeftLeg  14.8067 9.64227 0.902187
LeftFoot  -6.09128 0.0195817 0.398752
LeftToes  1.06245e-005 4.65868e-005 -8.65517e-006
2440
root  8.25077 40.0851 24.1054 164.707 85.8892 167.028
RightUpLeg  -11.2715 -19.8434 0.111584
RightLeg  19.3102 -10.9869 -1.60409
RightFoot  -5.25403 0.274857 -5.86359
RightToes  0.000481921 0.542163 -0.142578
Spine  16.0426 -0.789522 5.28759
Spine1  12.1202 0.146303 -0.837853
HEad  -13.7284 5.20938 -6.53332
LeftShoulder1  9.91358 -16.0291 -44.1893
LeftArm  5.21787 -18.5613 -22.4991
LeftForeArm  144.484 -77.6635 -130.575
LeftHand  -0.25398 0.0180481 5.50724
RightShoulder  5.88463 11.6272 32.9448
RightArm  11.8907 12.952 26.6306
RightForeArm  96.7307 73.8161 134.427
RightHand  -3.22021 9.12484 -25.7793
LeftUpLeg  -7.46554 25.615 -0.583628
LeftLeg  18.1491 5.31228 2.44692
LeftFoot  -7.11093 0.0357153 0.182694
LeftToes  1.06245e-005 4.65868e-005 -8.65517e-006
2441
root  8.25834 39.8893 23.9471 176.473 84.8099 178.356
RightUpLeg  -12.4591 -21.4146 0.636298
RightLeg  20.8812 -10.8708 -1.95091
RightFoot  -5.81607 0.224873 -5.44329
RightToes  0.000481921 0.542163 -0.142578
Spine  16.8066 -1.33991 7.52138
Spine1  12.1726 0.0332156 -1.29628
HEad  -15.2355 4.23546 -6.19886
LeftShoulder1  10.4374 -16.1823 -46.2447
LeftArm  7.78105 -15.9871 -22.9377
LeftForeArm  128.707 -79.8624 -112.843
LeftHand  -0.25398 0.0180481 5.50724
RightShoulder  6.05143 11.6654 33.94
RightArm  14.4299 9.9342 27.7682
RightForeArm  88.4687 76.2433 123.189
RightHand  -3.79188 11.1495 -26.605
LeftUpLeg  -10.9995 23.8849 -0.41757
LeftLeg  23.5742 5.69533 3.04345
LeftFoot  -7.55831 0.0480368 -0.145059
LeftToes  1.06245e-005 4.65868e-005 -8.65517e-006
2442
root  8.19779 39.7211 23.8438 -177.992 84.0853 -176.892
RightUpLeg  -14.0428 -25.0337 1.41149
RightLeg  21.964 -8.62139 -1.75692
RightFoot  -6.38225 0.138717 -4.20816
RightToes  0.000481921 0.542163 -0.142578
Spine  17.8239 -1.4475 8.90024
Spine1  11.9535 0.179419 -1.42326
HEad  -17.3484 3.2422 -5.89504
LeftShoulder1  10.8143 -16.2978 -47.6685
LeftArm  9.72776 -13.8514 -24.18
LeftForeArm  103.746 -80.7412 -84.4135
LeftHand  -0.25398 0.0180481 5.50724
RightShoulder  6.18749 11.7376 34.6352
RightArm  16.0932 7.13347 28.9196
RightForeArm  76.1947 77.9795 107.816
RightHand  -4.23161 12.5379 -27.3546
LeftUpLeg  -15.9093 24.4056 -0.290646
LeftLeg  30.2891 4.07377 2.89049
LeftFoot  -5.56129 0.131225 -1.8056
LeftToes  1.06245e-005 4.65868e-005 -8.65517e-006
2443
root  8.09461 39.5876 23.8134 -174.791 83.6412 -174.407
RightUpLeg  -15.4558 -26.4047 2.17222
RightLeg  22.6114 -7.74665 -1.44345
RightFoot  -6.67434 0.138094 -4.49917
RightToes  0.000481921 0.542163 -0.142578
Spine  19.1599 -1.25367 9.54711
Spine1  11.5151 0.430662 -1.10472
HEad  -19.4251 2.43311 -5.23152
LeftShoulder1  11.0203 -16.4896 -48.1163
LeftArm  10.9901 -12.0511 -26.1027
LeftForeArm  76.8635 -78.8542 -54.1279
LeftHand  -0.25398 0.0180481 5.50724
RightShoulder  6.3579 11.9134 35.2667
RightArm  17.2296 4.77915 30.2913
RightForeArm  55.914 78.5797 84.9566
RightHand  -4.58999 13.5111 -28.1003
LeftUpLeg  -21.0969 25.3414 0.312765
LeftLeg  37.1887 1.32947 1.43036
LeftFoot  -0.979736 0.538204 -5.70611
LeftToes  1.06245e-005 4.65868e-005 -8.65517e-006
2444
root  7.99164 39.4597 23.7697 -171.702 83.1744 -171.614
RightUpLeg  -16.369 -26.0853 2.56749
RightLeg  23.4702 -8.38898 -1.4961
RightFoot  -7.00106 0.151458 -5.23198
RightToes  0.000481921 0.542163 -0.142578
Spine  20.4888 -1.23746 10.2926
Spine1  11.3273 0.52992 -0.783724
HEad  -20.897 1.83585 -4.25635
LeftShoulder1  11.1136 -16.7019 -48.0109
LeftArm  11.7181 -10.7869 -28.0314
LeftForeArm  58.3659 -74.3741 -34.5771
LeftHand  -0.25398 0.0180481 5.50724
RightShoulder  6.5686 12.1529 35.9661
RightArm  18.1294 3.46133 31.8565
RightForeArm  31.3869 76.7744 58.3873
RightHand  -4.99259 14.547 -28.9253
LeftUpLeg  -25.2143 25.0801 1.71662
LeftLeg  43.0313 -1.63214 -1.24586
LeftFoot  3.40675 1.37199 -10.7924
LeftToes  1.06245e-005 4.65868e-005 -8.65517e-006
2445
root  7.93264 39.3753 23.6503 -170.436 82.7698 -170.447
RightUpLeg  -16.9751 -26.5028 2.62425
RightLeg  24.3199 -8.39692 -1.71273
RightFoot  -7.25193 0.125867 -4.89437
RightToes  0.000481921 0.542163 -0.142578
Spine  21.3688 -1.45981 10.9574
Spine1  11.5916 0.440932 -0.692971
HEad  -21.6461 1.53371 -3.53008
LeftShoulder1  11.2082 -16.8301 -48.1147
LeftArm  12.3197 -10.1411 -29.4378
LeftForeArm  45.9362 -68.4477 -23.8536
LeftHand  -0.25398 0.0180481 5.50724
RightShoulder  6.7952 12.4098 36.6928
RightArm  19.0491 3.24323 33.2437
RightForeArm  13.5549 72.5802 39.5002
RightHand  -5.4366 15.686 -29.7439
LeftUpLeg  -27.7277 23.7117 3.34197
LeftLeg  46.8156 -4.04164 -4.17464
LeftFoot  4.61056 1.97566 -14.3018
LeftToes  1.06245e-005 4.65868e-005 -8.65517e-006
2446
root  7.93759 39.3983 23.4851 -172.716 82.778 -173.015
RightUpLeg  -17.3669 -27.2587 2.29275
RightLeg  24.3716 -7.61235 -1.70178
RightFoot  -7.06714 0.111275 -4.25859
RightToes  0.000481921 0.542163 -0.142578
Spine  21.6887 -1.49863 10.7368
Spine1  11.9224 0.356642 -0.552322
HEad  -21.7831 1.39258 -3.3471
LeftShoulder1  11.3557 -16.8829 -48.6272
LeftArm  13.1524 -9.81094 -30.2814
LeftForeArm  37.3757 -62.3036 -17.8978
LeftHand  -0.25398 0.0180481 5.50724
RightShoulder  6.99919 12.6277 37.3592
RightArm  20.1259 3.45838 34.1467
RightForeArm  3.62504 67.9164 29.5469
RightHand  -5.78412 16.5703 -30.3298
LeftUpLeg  -28.8363 22.281 4.59288
LeftLeg  47.9369 -5.01059 -5.5
LeftFoot  2.87205 1.80733 -14.5371
LeftToes  1.06245e-005 4.65868e-005 -8.65517e-006
2447
root  7.98534 39.4953 23.3072 -177.077 83.2112 -177.838
RightUpLeg  -17.5168 -26.8164 1.56467
RightLeg  23.7581 -7.46172 -1.55964
RightFoot  -6.54079 0.134293 -4.24967
RightToes  0.000481921 0.542163 -0.142578
Spine  21.7782 -1.23239 9.83165
Spine1  12.0395 0.416983 -0.279548
HEad  -21.6177 1.3094 -3.4832
LeftShoulder1  11.5012 -16.9394 -49.117
LeftArm  14.2276 -9.3842 -30.7055
LeftForeArm  32.3483 -57.4845 -14.7859
LeftHand  -0.25398 0.0180481 5.50724
RightShoulder  7.12404 12.7295 37.8389
RightArm  21.2714 3.51525 34.6578
RightForeArm  -1.10961 64.4008 24.7944
RightHand  -6.02452 17.1254 -30.7776
LeftUpLeg  -28.7512 21.1435 5.72698
LeftLeg  46.3685 -4.00243 -4.10019
LeftFoot  0.539433 1.27192 -12.2043
LeftToes  1.06245e-005 4.65868e-005 -8.65517e-006
2448
root  8.03036 39.5959 23.086 -179.937 83.7749 178.981
RightUpLeg  -17.3179 -25.7446 0.751044
RightLeg  22.9295 -7.91276 -1.33497
RightFoot  -5.90709 0.163418 -4.28579
RightToes  0.000481921 0.542163 -0.142578
Spine  21.8832 -1.03045 9.25551
Spine1  12.0684 0.547478 -0.243887
HEad  -21.4823 1.21924 -3.53224
LeftShoulder1  11.5678 -17.0004 -49.2546
LeftArm  15.2227 -8.65728 -30.7604
LeftForeArm  29.832 -55.2093 -13.6621
LeftHand  -0.25398 0.0180481 5.50724
RightShoulder  7.13898 12.7161 37.9622
RightArm  22.2677 3.36545 35.0254
RightForeArm  -2.33618 62.6314 22.8467
RightHand  -6.19046 17.4247 -31.1829
LeftUpLeg  -27.5031 19.7273 7.26757
LeftLeg  42.6636 -1.42616 -1.04303
LeftFoot  -0.985979 0.816615 -8.9495
LeftToes  1.06245e-005 4.65868e-005 -8.65517e-006
2449
root  8.06048 39.6698 22.7924 -179.694 84.3566 179.102
RightUpLeg  -16.9221 -25.192 0.149699
RightLeg  22.0908 -7.97594 -0.942125
RightFoot  -5.26513 0.168437 -3.8433
RightToes  0.000481921 0.542163 -0.142578
Spine  21.9339 -1.06838 9.234
Spine1  12.1877 0.615151 -0.496929
HEad  -21.4274 1.18946 -3.47073
LeftShoulder1  11.5417 -16.9979 -49.1489
LeftArm  15.7779 -7.63874 -30.5038
LeftForeArm  28.8932 -55.577 -13.9802
LeftHand  -0.25398 0.0180481 5.50724
RightShoulder  7.07692 12.6726 37.7068
RightArm  22.9097 3.20156 35.2415
RightForeArm  -1.5455 62.5025 22.6393
RightHand  -6.12157 17.2436 -31.0879
LeftUpLeg  -25.3373 17.8647 9.12058
LeftLeg  37.5697 1.63168 1.70596
LeftFoot  -1.86863 0.519341 -6.1411
LeftToes  1.06245e-005 4.65868e-005 -8.65517e-006
2450
root  8.10246 39.72 22.4414 -178.258 85.0259 -179.589
RightUpLeg  -16.6422 -24.8554 -0.317146
RightLeg  21.3754 -7.63345 -0.520218
RightFoot  -4.66565 0.168292 -3.42118
RightToes  0.000481921 0.542163 -0.142578
Spine  21.7464 -1.1055 9.09388
Spine1  12.3766 0.586989 -0.573701
HEad  -21.3178 1.39216 -3.49033
LeftShoulder1  11.4561 -16.9201 -48.97
LeftArm  15.7926 -6.46746 -30.0706
LeftForeArm  29.5388 -57.8081 -15.3232
LeftHand  -0.25398 0.0180481 5.50724
RightShoulder  6.99009 12.6339 37.2883
RightArm  23.1309 3.17967 35.1222
RightForeArm  0.292327 63.5872 23.682
RightHand  -5.7167 16.4532 -30.1438
LeftUpLeg  -22.7167 16.3535 10.7276
LeftLeg  31.7103 4.16251 3.12061
LeftFoot  -2.51399 0.363821 -4.52502
LeftToes  1.06245e-005 4.65868e-005 -8.65517e-006
2451
root  8.1656 39.7575 22.045 -176.655 85.7412 -178.143
RightUpLeg  -16.4552 -24.0929 -0.855702
RightLeg  20.8019 -7.54443 -0.284068
RightFoot  -4.10113 0.173816 -3.18402
RightToes  0.000481921 0.542163 -0.142578
Spine  21.2614 -1.06437 8.6616
Spine1  12.6005 0.483647 -0.407657
HEad  -21.0816 1.86057 -3.63623
LeftShoulder1  11.3329 -16.8278 -48.6614
LeftArm  15.3812 -5.39719 -29.543
LeftForeArm  31.7631 -61.1066 -17.5551
LeftHand  -0.25398 0.0180481 5.50724
RightShoulder  6.88482 12.5412 36.8952
RightArm  23.0785 3.48053 34.6772
RightForeArm  2.94358 65.4632 25.7943
RightHand  -5.16271 15.3086 -28.8186
LeftUpLeg  -19.9124 15.7925 11.7618
LeftLeg  25.6655 5.60626 3.26917
LeftFoot  -2.92726 0.306913 -3.93716
LeftToes  1.06245e-005 4.65868e-005 -8.65517e-006
